<svg xmlns="http://www.w3.org/2000/svg" viewBox="0 0 1400 900" width="1400" height="900"><rect width="1400" height="900" fill="#fff7ed"/><circle cx="250" cy="210" r="160" fill="#ddd6fe"/><circle cx="1120" cy="700" r="210" fill="#fed7aa"/><g fill="#fff" stroke="#4f46e5" stroke-opacity=".18" stroke-width="5"><rect x="160" y="250" width="300" height="430" rx="44"/><rect x="550" y="180" width="300" height="520" rx="44"/><rect x="940" y="250" width="300" height="430" rx="44"/></g><g fill="#1e1b4b"><circle cx="310" cy="365" r="58"/><circle cx="700" cy="310" r="68"/><circle cx="1090" cy="365" r="58"/></g><g fill="#64748b" opacity=".45"><rect x="220" y="470" width="180" height="26" rx="13"/><rect x="590" y="438" width="220" height="30" rx="15"/><rect x="1000" y="470" width="180" height="26" rx="13"/><rect x="230" y="525" width="160" height="18" rx="9"/><rect x="610" y="500" width="180" height="20" rx="10"/><rect x="1010" y="525" width="160" height="18" rx="9"/></g><g fill="#4f46e5"><rect x="240" y="600" width="140" height="44" rx="22"/><rect x="620" y="595" width="160" height="50" rx="25"/><rect x="1020" y="600" width="140" height="44" rx="22"/></g></svg>
