<svg xmlns="http://www.w3.org/2000/svg" viewBox="0 0 1400 900" width="1400" height="900"><rect width="1400" height="900" fill="#eef2ff"/><rect x="80" y="90" width="530" height="330" rx="42" fill="#4f46e5"/><rect x="650" y="90" width="670" height="210" rx="42" fill="#fff"/><rect x="650" y="330" width="310" height="390" rx="42" fill="#fed7aa"/><rect x="990" y="330" width="330" height="390" rx="42" fill="#fff"/><rect x="80" y="455" width="530" height="265" rx="42" fill="#fff"/><g fill="#1e1b4b" opacity=".16"><circle cx="210" cy="210" r="70"/><circle cx="440" cy="270" r="90"/><rect x="720" y="160" width="380" height="36" rx="18"/><rect x="720" y="220" width="300" height="24" rx="12"/><rect x="150" y="540" width="350" height="32" rx="16"/><rect x="150" y="600" width="260" height="22" rx="11"/><circle cx="1135" cy="485" r="90"/><rect x="1060" y="610" width="150" height="44" rx="22"/></g></svg>
